<?xml version="1.0" standalone="no"?>
<!DOCTYPE svg PUBLIC "-//W3C//DTD SVG 20010904//EN"
 "http://www.w3.org/TR/2001/REC-SVG-20010904/DTD/svg10.dtd">
<svg version="1.0" xmlns="http://www.w3.org/2000/svg"
 width="1080.000000pt" height="420.000000pt" viewBox="0 0 1080.000000 420.000000"
 preserveAspectRatio="xMidYMid meet">

<g transform="translate(0.000000,420.000000) scale(0.100000,-0.100000)"
fill="#89b29ee6" stroke="none">
<path d="M2704 4070 c-139 -28 -364 -135 -568 -270 -403 -267 -725 -627 -908
-1016 l-52 -112 -96 -7 c-168 -11 -312 -59 -442 -146 -139 -93 -329 -318 -408
-484 -50 -104 -58 -154 -30 -180 18 -17 25 -17 73 -6 249 61 432 91 545 91 51
0 53 -1 46 -22 -15 -47 -74 -262 -74 -270 0 -11 53 -43 210 -128 74 -40 201
-111 282 -157 81 -46 161 -86 179 -90 30 -6 37 -1 119 86 l87 91 36 -117 c52
-167 68 -251 74 -383 3 -74 10 -123 19 -137 20 -32 67 -30 129 6 181 104 336
349 375 595 18 111 8 338 -20 458 l-23 97 69 78 c226 254 348 431 469 678 126
256 204 528 235 816 14 127 9 349 -10 411 -14 48 -55 97 -97 114 -35 15 -152
17 -219 4z m-409 -824 c104 -48 160 -145 153 -263 -10 -167 -132 -271 -308
-261 -111 7 -189 55 -235 147 -22 44 -30 135 -16 187 24 89 109 179 192 202
65 19 160 14 214 -12z"/>
<path d="M3350 2030 l0 -730 470 0 470 0 0 135 0 135 -305 0 -305 0 0 595 0
595 -165 0 -165 0 0 -730z"/>
<path d="M7760 2030 l0 -730 154 0 154 0 5 338 c2 216 8 350 15 373 28 85 119
133 226 118 72 -9 104 -31 134 -89 22 -43 22 -51 22 -392 l0 -348 156 0 155 0
-3 413 c-3 406 -4 413 -27 471 -30 76 -97 148 -170 183 -52 26 -65 28 -176 28
-116 0 -123 -1 -187 -33 -36 -18 -82 -50 -102 -72 -20 -22 -38 -40 -41 -40 -3
0 -5 115 -5 255 l0 255 -155 0 -155 0 0 -730z"/>
<path d="M4723 2390 c-62 -13 -130 -45 -189 -90 -41 -31 -60 -56 -88 -112 -19
-40 -36 -86 -38 -103 l-3 -30 80 -6 c44 -3 103 -9 130 -13 l50 -6 20 42 c29
61 83 89 173 89 128 0 180 -41 197 -154 l7 -47 -103 0 c-193 -1 -377 -36 -464
-90 -45 -28 -103 -94 -123 -139 -10 -23 -16 -67 -16 -126 0 -75 3 -97 23 -135
70 -137 192 -195 388 -188 121 4 187 27 256 88 21 18 40 30 44 27 3 -3 8 -26
10 -52 l6 -45 136 0 136 0 -3 367 c-2 203 -7 392 -12 422 -25 140 -108 233
-251 281 -50 17 -93 23 -194 26 -71 2 -149 -1 -172 -6z m330 -682 c-5 -137
-76 -198 -231 -198 -94 0 -148 35 -158 102 -8 48 17 93 65 117 52 27 194 50
291 47 l35 -1 -2 -67z"/>
<path d="M5997 2389 c-57 -13 -115 -46 -166 -94 l-47 -44 4 65 4 64 -156 0
-156 0 0 -540 0 -540 155 0 155 0 0 333 c0 197 4 347 10 369 14 48 55 97 97
114 43 18 147 18 182 -1 44 -22 78 -70 90 -125 7 -31 11 -178 11 -370 l0 -320
151 0 150 0 -3 418 c-4 458 -3 453 -68 547 -58 84 -175 136 -303 134 -40 -1
-89 -5 -110 -10z"/>
<path d="M6982 2386 c-189 -48 -335 -204 -377 -401 -33 -155 -10 -358 52 -464
41 -70 117 -145 182 -179 84 -46 159 -62 281 -62 182 0 291 39 391 139 31 31
68 80 83 109 24 48 56 149 56 179 0 10 -36 13 -160 13 -159 0 -160 0 -160 -22
0 -30 -45 -107 -73 -127 -83 -60 -219 -50 -284 20 -87 95 -97 343 -19 457 38
54 89 83 157 90 95 9 172 -42 204 -135 l13 -38 156 -3 c180 -3 170 -10 136
101 -44 142 -162 264 -298 308 -84 27 -261 35 -340 15z"/>
<path d="M9253 2385 c-85 -23 -143 -56 -208 -117 -113 -105 -165 -245 -165
-442 0 -186 44 -310 146 -412 94 -96 204 -134 379 -134 175 0 277 37 380 139
44 43 96 134 110 194 l7 27 -156 0 c-97 0 -156 -4 -156 -10 0 -22 -74 -90
-108 -100 -153 -42 -284 38 -299 185 l-6 55 367 0 366 0 0 103 c0 276 -134
463 -367 512 -85 18 -222 18 -290 0z m275 -248 c43 -28 75 -78 85 -134 l7 -33
-215 0 c-239 0 -226 -5 -200 72 30 88 103 130 216 125 52 -2 75 -8 107 -30z"/>
<path d="M10503 2374 c-49 -24 -97 -68 -135 -124 -17 -25 -17 -24 -17 53 l-1
77 -152 0 -153 0 0 -540 0 -540 152 0 152 0 3 323 3 322 26 55 c18 38 39 64
69 85 41 28 49 30 154 32 l111 2 3 128 c3 152 2 153 -98 153 -51 0 -78 -6
-117 -26z"/>
<path d="M675 1382 c-117 -41 -218 -123 -305 -248 -97 -141 -133 -254 -150
-476 -12 -167 -23 -252 -51 -401 -22 -118 -20 -152 11 -162 41 -13 473 191
649 306 115 76 245 202 294 287 61 104 80 172 81 288 1 149 -6 153 -105 60
-138 -130 -271 -178 -336 -122 -42 36 -38 99 15 258 48 146 52 190 20 212 -29
20 -60 20 -123 -2z"/>
</g>
</svg>
